<?xml version="1.0" encoding="UTF-8"?>
<svg xmlns="http://www.w3.org/2000/svg" width="1440" height="900" viewBox="0 0 1440 900">
  <rect width="100%" height="100%" fill="#f8fafc"/>
  <rect x="80" y="80" width="1280" height="140" rx="24" fill="#0f172a"/>
  <text x="120" y="150" font-size="36" font-weight="700" fill="#ffffff">Executive Operations Dashboard</text>
  <text x="120" y="192" font-size="22" fill="#cbd5f5">Monthly KPI Summary</text>
  <rect x="80" y="280" width="620" height="140" rx="18" fill="#ffffff" stroke="#e2e8f0"/>
<text x="108" y="332" font-size="22" fill="#64748b">Total reports</text>
<text x="108" y="378" font-size="36" font-weight="700" fill="#0f172a">2,847</text><rect x="740" y="280" width="620" height="140" rx="18" fill="#ffffff" stroke="#e2e8f0"/>
<text x="768" y="332" font-size="22" fill="#64748b">Time saved</text>
<text x="768" y="378" font-size="36" font-weight="700" fill="#0f172a">1,240 hrs</text><rect x="80" y="450" width="620" height="140" rx="18" fill="#ffffff" stroke="#e2e8f0"/>
<text x="108" y="502" font-size="22" fill="#64748b">Compliance score</text>
<text x="108" y="548" font-size="36" font-weight="700" fill="#0f172a">98.4</text><rect x="740" y="450" width="620" height="140" rx="18" fill="#ffffff" stroke="#e2e8f0"/>
<text x="768" y="502" font-size="22" fill="#64748b">User satisfaction</text>
<text x="768" y="548" font-size="36" font-weight="700" fill="#0f172a">4.8 / 5</text>
  <rect x="80" y="660" width="1280" height="170" rx="20" fill="#ffffff" stroke="#e2e8f0"/>
  <text x="108" y="692" font-size="24" font-weight="600" fill="#0f172a">Export notes</text>
  <text x="80" y="700" font-size="22" fill="#334155">• Snapshot from Portfolio Dashboard</text><text x="80" y="736" font-size="22" fill="#334155">• Data updated: 2025-12-22</text>
  <text x="1140" y="860" font-size="18" fill="#94a3b8">Generated for portfolio</text>
</svg>